<svg xmlns="http://www.w3.org/2000/svg" width="205.226" height="276.058" viewBox="0 0 205.226 276.058">
  <g id="Group_23" data-name="Group 23" transform="translate(-54.515 -624.574)">
    <path id="Path_61" data-name="Path 61" d="M1533.761,1592.848c-8.106,35.666,17.356,94.913-8.7,130.09-22.054,29.773-37.078,32.693-67.228,32.693-33.738,0-59.995-2.972-78.5-36.991-21.188-38.949,10.041-84.328,10.041-116.133,0-76.654,22.823-103.746,79.623-113.694C1539.479,1476.469,1551.713,1513.861,1533.761,1592.848Z" transform="translate(-1313.959 -858.499)" fill="none" stroke="#191717" stroke-miterlimit="10" stroke-width="7"/>
    <path id="Path_62" data-name="Path 62" d="M1475.832,1498.531c67.88-11.888,79.661,24.122,62.373,100.19-7.806,34.348,16.715,91.405-8.379,125.283-21.239,28.673-35.708,31.484-64.744,31.484-32.491,0-57.778-2.862-75.6-35.623-20.406-37.51,9.67-81.212,9.67-111.842C1399.152,1534.2,1421.131,1508.111,1475.832,1498.531Z" transform="translate(-1313.959 -858.499)" fill="none" stroke="#191717" stroke-miterlimit="10" stroke-width="7"/>
    <path id="Path_63" data-name="Path 63" d="M1482.669,1508.249c65.276-11.432,76.605,23.2,59.98,96.345-7.507,33.03,16.073,87.9-8.058,120.475-20.424,27.573-34.337,30.276-62.259,30.276-31.244,0-55.561-2.752-72.7-34.256-19.622-36.071,9.3-78.095,9.3-107.55C1408.932,1542.551,1430.068,1517.461,1482.669,1508.249Z" transform="translate(-1313.959 -858.499)" fill="none" stroke="#191717" stroke-miterlimit="10" stroke-width="7"/>
    <path id="Path_64" data-name="Path 64" d="M1489.507,1517.967c62.67-10.976,73.547,22.271,57.586,92.5-7.207,31.712,15.432,84.39-7.736,115.668-19.609,26.472-32.967,29.067-59.774,29.067-30,0-53.344-2.642-69.8-32.889-18.839-34.631,8.928-74.978,8.928-103.257C1418.712,1550.9,1439,1526.812,1489.507,1517.967Z" transform="translate(-1313.959 -858.499)" fill="none" stroke="#191717" stroke-miterlimit="10" stroke-width="7"/>
    <path id="Path_65" data-name="Path 65" d="M1496.345,1527.685c60.065-10.519,70.49,21.345,55.192,88.655-6.908,30.394,14.79,80.883-7.415,110.86-18.794,25.372-31.6,27.859-57.289,27.859-28.751,0-51.127-2.532-66.9-31.522-18.057-33.191,8.556-71.862,8.556-98.965C1428.492,1559.249,1447.941,1536.162,1496.345,1527.685Z" transform="translate(-1313.959 -858.499)" fill="none" stroke="#191717" stroke-miterlimit="10" stroke-width="7"/>
    <path id="Path_66" data-name="Path 66" d="M1503.182,1537.4c57.461-10.063,67.433,20.419,52.8,84.811-6.608,29.075,14.149,77.374-7.093,106.051-17.979,24.272-30.227,26.652-54.8,26.652-27.505,0-48.91-2.423-64-30.156-17.273-31.752,8.185-68.745,8.185-94.673C1438.272,1567.6,1456.878,1545.512,1503.182,1537.4Z" transform="translate(-1313.959 -858.499)" fill="none" stroke="#191717" stroke-miterlimit="10" stroke-width="7"/>
    <path id="Path_67" data-name="Path 67" d="M1510.02,1547.121c54.855-9.607,64.376,19.494,50.405,80.966-6.309,27.757,13.508,73.866-6.772,101.244-17.164,23.171-28.856,25.443-52.32,25.443-26.258,0-46.692-2.313-61.095-28.788-16.49-30.313,7.814-65.629,7.814-90.382C1448.052,1575.947,1465.814,1554.863,1510.02,1547.121Z" transform="translate(-1313.959 -858.499)" fill="none" stroke="#191717" stroke-miterlimit="10" stroke-width="7"/>
    <path id="Path_68" data-name="Path 68" d="M1564.869,1633.96c-6.009,26.439,12.866,70.359-6.45,96.436-16.349,22.071-27.486,24.235-49.836,24.235-25.011,0-44.475-2.2-58.194-27.421-15.707-28.873,7.444-62.513,7.444-86.09,0-56.824,16.918-76.907,59.024-84.281C1569.108,1547.688,1578.176,1575.407,1564.869,1633.96Z" transform="translate(-1313.959 -858.499)" fill="none" stroke="#191717" stroke-miterlimit="10" stroke-width="7"/>
  </g>
</svg>
