<svg xmlns="http://www.w3.org/2000/svg" width="22.8" height="22.52" viewBox="0 0 22.8 22.52">
  <path id="Icon_feather-github" data-name="Icon feather-github" d="M10,18.178C5,19.569,5,15.859,3,15.4M17,20.96V17.371a3,3,0,0,0-.94-2.42c3.14-.325,6.44-1.428,6.44-6.492A4.855,4.855,0,0,0,21,4.982a4.386,4.386,0,0,0-.091-3.5S19.73,1.16,17,2.857a14.392,14.392,0,0,0-7,0C7.27,1.16,6.09,1.485,6.09,1.485A4.386,4.386,0,0,0,6,4.981,4.854,4.854,0,0,0,4.5,8.486c0,5.026,3.3,6.13,6.44,6.492A3,3,0,0,0,10,17.371V20.96" transform="translate(-1.2 0.06)" fill="none" stroke="#fff" stroke-linecap="round" stroke-linejoin="round" stroke-width="3"/>
</svg>
