<svg xmlns="http://www.w3.org/2000/svg" width="19.499" height="19.499" viewBox="0 0 19.499 19.499">
  <path id="Icon_awesome-linkedin-in" data-name="Icon awesome-linkedin-in" d="M4.365,19.5H.322V6.481H4.365ZM2.341,4.705A2.352,2.352,0,1,1,4.682,2.342,2.361,2.361,0,0,1,2.341,4.705ZM19.495,19.5H15.461V13.162c0-1.51-.03-3.447-2.1-3.447-2.1,0-2.424,1.641-2.424,3.338V19.5H6.9V6.481h3.877V8.257h.057a4.248,4.248,0,0,1,3.825-2.1c4.091,0,4.843,2.694,4.843,6.194V19.5Z" transform="translate(0 0)" fill="#f0f6ff"/>
</svg>
