<svg xmlns="http://www.w3.org/2000/svg" width="262.107" height="259.352" viewBox="0 0 262.107 259.352">
  <g id="Group_27" data-name="Group 27" transform="translate(-69.617 -2001.204)">
    <path id="Path_27" data-name="Path 27" d="M-1138.243,1289.905l89.351,92.945,16.928,17.609,6.806,7.08,4.188,4.357,61.429,63.9L-1084.71,1506.7l-125.168,30.907,35.818-123.852Z" transform="translate(1284.542 718.095)" fill="none" stroke="#191717" stroke-miterlimit="10" stroke-width="7"/>
    <path id="Path_28" data-name="Path 28" d="M-1135.654,1299.383l83.112,86.456,83.112,86.456-116.429,28.75-116.429,28.749,33.317-115.2Z" transform="translate(1284.542 718.095)" fill="none" stroke="#191717" stroke-miterlimit="10" stroke-width="5"/>
    <path id="Path_29" data-name="Path 29" d="M-1133.064,1308.86l76.874,79.966,76.874,79.966-107.69,26.591-107.689,26.592,30.816-106.558Z" transform="translate(1284.542 718.095)" fill="none" stroke="#191717" stroke-miterlimit="10" stroke-width="7"/>
    <path id="Path_30" data-name="Path 30" d="M-1130.474,1318.337l70.635,73.477,70.635,73.477-98.95,24.433-98.95,24.433,28.315-97.91Z" transform="translate(1284.542 718.095)" fill="none" stroke="#191717" stroke-miterlimit="10" stroke-width="5"/>
    <path id="Path_31" data-name="Path 31" d="M-1127.885,1327.814l64.4,66.987,64.4,66.987-90.211,22.276-90.211,22.276,25.814-89.263Z" transform="translate(1284.542 718.095)" fill="none" stroke="#191717" stroke-miterlimit="10" stroke-width="4"/>
    <path id="Path_32" data-name="Path 32" d="M-1125.295,1337.291l58.158,60.5,58.158,60.5-81.472,20.118-81.472,20.118,23.313-80.615Z" transform="translate(1284.542 718.095)" fill="none" stroke="#191717" stroke-miterlimit="10" stroke-width="4"/>
    <path id="Path_33" data-name="Path 33" d="M-1122.705,1346.769l51.92,54.008,51.92,54.008-72.732,17.96-72.732,17.96,20.813-71.968Z" transform="translate(1284.542 718.095)" fill="none" stroke="#191717" stroke-miterlimit="10" stroke-width="4"/>
    <path id="Path_34" data-name="Path 34" d="M-1120.115,1356.246l45.681,47.519,45.681,47.519-63.993,15.8-63.993,15.8,18.312-63.32Z" transform="translate(1284.542 718.095)" fill="none" stroke="#191717" stroke-miterlimit="10" stroke-width="4"/>
    <path id="Path_35" data-name="Path 35" d="M-1117.526,1365.723l39.443,41.029,39.443,41.029-55.254,13.644-55.254,13.644,15.811-54.673Z" transform="translate(1284.542 718.095)" fill="none" stroke="#191717" stroke-miterlimit="10" stroke-width="4"/>
  </g>
</svg>
