<svg xmlns="http://www.w3.org/2000/svg" width="281.359" height="221.286" viewBox="0 0 281.359 221.286">
  <g id="Group_2" data-name="Group 2" transform="translate(-592.876 -1526.109)">
    <circle id="Ellipse_12" data-name="Ellipse 12" cx="23.902" cy="23.902" r="23.902" transform="translate(826.195 1699.356)" fill="none" stroke="#fff" stroke-miterlimit="10" stroke-width="0.469"/>
    <circle id="Ellipse_13" data-name="Ellipse 13" cx="23.262" cy="23.262" r="23.262" transform="translate(820.707 1696.093)" fill="none" stroke="#fff" stroke-miterlimit="10" stroke-width="0.518"/>
    <circle id="Ellipse_14" data-name="Ellipse 14" cx="23.132" cy="23.132" r="23.132" transform="translate(814.708 1692.318)" fill="none" stroke="#fff" stroke-miterlimit="10" stroke-width="0.566"/>
    <circle id="Ellipse_15" data-name="Ellipse 15" cx="23.523" cy="23.523" r="23.523" transform="translate(808.189 1688.024)" fill="none" stroke="#fff" stroke-miterlimit="10" stroke-width="0.615"/>
    <circle id="Ellipse_16" data-name="Ellipse 16" cx="24.408" cy="24.408" r="24.408" transform="translate(801.175 1683.235)" fill="none" stroke="#fff" stroke-miterlimit="10" stroke-width="0.664"/>
    <circle id="Ellipse_17" data-name="Ellipse 17" cx="25.737" cy="25.737" r="25.737" transform="translate(793.717 1678.002)" fill="none" stroke="#fff" stroke-miterlimit="10" stroke-width="0.712"/>
    <circle id="Ellipse_18" data-name="Ellipse 18" cx="27.445" cy="27.445" r="27.445" transform="translate(785.88 1672.39)" fill="none" stroke="#fff" stroke-miterlimit="10" stroke-width="0.761"/>
    <circle id="Ellipse_19" data-name="Ellipse 19" cx="29.467" cy="29.467" r="29.467" transform="translate(777.729 1666.464)" fill="none" stroke="#fff" stroke-miterlimit="10" stroke-width="0.81"/>
    <circle id="Ellipse_20" data-name="Ellipse 20" cx="31.742" cy="31.742" r="31.742" transform="translate(769.325 1660.285)" fill="none" stroke="#fff" stroke-miterlimit="10" stroke-width="0.858"/>
    <circle id="Ellipse_21" data-name="Ellipse 21" cx="34.221" cy="34.221" r="34.221" transform="translate(760.718 1653.902)" fill="none" stroke="#fff" stroke-miterlimit="10" stroke-width="0.907"/>
    <circle id="Ellipse_22" data-name="Ellipse 22" cx="36.862" cy="36.862" r="36.862" transform="translate(751.948 1647.358)" fill="none" stroke="#fff" stroke-miterlimit="10" stroke-width="0.956"/>
    <circle id="Ellipse_23" data-name="Ellipse 23" cx="39.632" cy="39.632" r="39.632" transform="translate(743.049 1640.684)" fill="none" stroke="#fff" stroke-miterlimit="10" stroke-width="1.004"/>
    <circle id="Ellipse_24" data-name="Ellipse 24" cx="42.507" cy="42.507" r="42.507" transform="translate(734.046 1633.905)" fill="none" stroke="#fff" stroke-miterlimit="10" stroke-width="1.053"/>
    <circle id="Ellipse_25" data-name="Ellipse 25" cx="45.466" cy="45.466" r="45.466" transform="translate(724.957 1627.042)" fill="none" stroke="#fff" stroke-miterlimit="10" stroke-width="1.102"/>
    <circle id="Ellipse_26" data-name="Ellipse 26" cx="48.495" cy="48.495" r="48.495" transform="translate(715.8 1620.109)" fill="none" stroke="#fff" stroke-miterlimit="10" stroke-width="1.15"/>
    <circle id="Ellipse_27" data-name="Ellipse 27" cx="51.58" cy="51.58" r="51.58" transform="translate(706.586 1613.12)" fill="none" stroke="#fff" stroke-miterlimit="10" stroke-width="1.199"/>
    <circle id="Ellipse_28" data-name="Ellipse 28" cx="54.713" cy="54.713" r="54.713" transform="translate(697.325 1606.083)" fill="none" stroke="#fff" stroke-miterlimit="10" stroke-width="1.248"/>
    <circle id="Ellipse_29" data-name="Ellipse 29" cx="57.885" cy="57.885" r="57.885" transform="translate(688.023 1599.007)" fill="none" stroke="#fff" stroke-miterlimit="10" stroke-width="1.296"/>
    <circle id="Ellipse_30" data-name="Ellipse 30" cx="61.091" cy="61.091" r="61.091" transform="translate(678.689 1591.898)" fill="none" stroke="#fff" stroke-miterlimit="10" stroke-width="1.345"/>
    <circle id="Ellipse_31" data-name="Ellipse 31" cx="64.325" cy="64.325" r="64.325" transform="translate(669.326 1584.76)" fill="none" stroke="#fff" stroke-miterlimit="10" stroke-width="1.394"/>
    <circle id="Ellipse_32" data-name="Ellipse 32" cx="67.584" cy="67.584" r="67.584" transform="translate(659.938 1577.597)" fill="none" stroke="#fff" stroke-miterlimit="10" stroke-width="1.442"/>
    <circle id="Ellipse_33" data-name="Ellipse 33" cx="70.863" cy="70.863" r="70.863" transform="translate(650.53 1570.414)" fill="none" stroke="#fff" stroke-miterlimit="10" stroke-width="1.491"/>
    <circle id="Ellipse_34" data-name="Ellipse 34" cx="74.161" cy="74.161" r="74.161" transform="translate(641.104 1563.212)" fill="none" stroke="#fff" stroke-miterlimit="10" stroke-width="1.54"/>
    <circle id="Ellipse_35" data-name="Ellipse 35" cx="77.475" cy="77.475" r="77.475" transform="translate(631.661 1555.994)" fill="none" stroke="#fff" stroke-miterlimit="10" stroke-width="1.588"/>
    <circle id="Ellipse_36" data-name="Ellipse 36" cx="80.802" cy="80.802" r="80.802" transform="translate(622.205 1548.763)" fill="none" stroke="#fff" stroke-miterlimit="10" stroke-width="1.637"/>
    <circle id="Ellipse_37" data-name="Ellipse 37" cx="84.142" cy="84.142" r="84.142" transform="translate(612.736 1541.519)" fill="none" stroke="#fff" stroke-miterlimit="10" stroke-width="1.685"/>
    <circle id="Ellipse_38" data-name="Ellipse 38" cx="87.493" cy="87.493" r="87.493" transform="translate(603.256 1534.264)" fill="none" stroke="#fff" stroke-miterlimit="10" stroke-width="1.734"/>
    <circle id="Ellipse_39" data-name="Ellipse 39" cx="90.853" cy="90.853" r="90.853" transform="translate(593.767 1527)" fill="none" stroke="#fff" stroke-miterlimit="10" stroke-width="1.783"/>
  </g>
</svg>
