<svg xmlns="http://www.w3.org/2000/svg" xmlns:xlink="http://www.w3.org/1999/xlink" width="265.818" height="347.266" viewBox="0 0 265.818 347.266">
  <g id="Group_4" data-name="Group 4" transform="translate(-1078.527 -174.636)">
    <path id="Path_36" data-name="Path 36" d="M1634.45,1066.121c-4.392,93.9-29.595,49.839-33.665,128.868-1.753,34.044-37.13,77.648-69.08,91.4-37,15.927-79.838,13.958-123.315-8.23-60.178-30.71-30.167-59.324-18.529-147.057,4.356-32.839-16.21-66.075-16.21-92.817,0-94.3,81.47-91.729,146.535-80.219C1620.89,975.883,1638.186,986.234,1634.45,1066.121Z" transform="translate(-292.029 -776.427)" fill="none" stroke="#fff" stroke-miterlimit="10" stroke-width="3"/>
    <path id="Path_37" data-name="Path 37" d="M1521.566,967.762c96.029,16.988,112.521,26.859,108.958,103.037-4.187,89.536-28.22,47.524-32.1,122.883-1.672,32.464-35.406,74.042-65.872,87.157-35.28,15.188-76.131,13.31-117.589-7.847-57.384-29.285-28.766-56.57-17.669-140.229,4.154-31.314-15.457-63.007-15.457-88.507C1381.836,954.331,1459.523,956.786,1521.566,967.762Z" transform="translate(-292.029 -776.427)" fill="none" stroke="#fff" stroke-miterlimit="10" stroke-width="3"/>
    <path id="Path_38" data-name="Path 38" d="M1522.947,977.457c91.352,16.161,107.041,25.552,103.652,98.019-3.984,85.176-26.846,45.21-30.538,116.9-1.59,30.882-33.682,70.436-62.664,82.913-33.562,14.447-72.424,12.661-111.863-7.466-54.59-27.858-27.365-53.815-16.808-133.4,3.951-29.789-14.7-59.939-14.7-84.2C1390.021,964.68,1463.925,967.016,1522.947,977.457Z" transform="translate(-292.029 -776.427)" fill="none" stroke="#fff" stroke-miterlimit="10" stroke-width="3"/>
    <path id="Path_39" data-name="Path 39" d="M1524.328,987.152c86.676,15.334,101.562,24.244,98.346,93-3.78,80.816-25.472,42.895-28.975,110.915-1.509,29.3-31.958,66.831-59.457,78.669-31.844,13.708-68.716,12.013-106.136-7.084-51.795-26.432-25.964-51.059-15.948-126.571,3.749-28.264-13.952-56.871-13.952-79.887C1398.206,975.029,1468.327,977.245,1524.328,987.152Z" transform="translate(-292.029 -776.427)" fill="none" stroke="#fff" stroke-miterlimit="10" stroke-width="3"/>
    <path id="Path_40" data-name="Path 40" d="M1525.708,996.847c82,14.507,96.083,22.936,93.041,87.984-3.576,76.456-24.1,40.582-27.412,104.932-1.428,27.72-30.234,63.225-56.249,74.424-30.126,12.969-65.009,11.365-100.41-6.7-49-25.007-24.564-48.3-15.088-119.743,3.547-26.739-13.2-53.8-13.2-75.577C1406.391,985.378,1472.729,987.475,1525.708,996.847Z" transform="translate(-292.029 -776.427)" fill="none" stroke="#fff" stroke-miterlimit="10" stroke-width="3"/>
    <path id="Path_41" data-name="Path 41" d="M1527.089,1006.542c77.323,13.679,90.6,21.628,87.734,82.967-3.372,72.095-22.723,38.267-25.848,98.947-1.346,26.14-28.509,59.62-53.041,70.18-28.408,12.229-61.3,10.717-94.685-6.319-46.206-23.58-23.162-45.55-14.226-112.914,3.344-25.214-12.447-50.734-12.447-71.267C1414.576,995.728,1477.131,997.7,1527.089,1006.542Z" transform="translate(-292.029 -776.427)" fill="none" stroke="#fff" stroke-miterlimit="10" stroke-width="3"/>
    <path id="Path_42" data-name="Path 42" d="M1528.469,1016.237c72.648,12.852,85.124,20.32,82.429,77.949-3.168,67.736-21.349,35.953-24.285,92.964-1.265,24.559-26.785,56.014-49.833,65.935-26.69,11.49-57.595,10.069-88.959-5.936-43.411-22.155-21.761-42.8-13.366-106.086,3.142-23.689-11.694-47.666-11.694-66.957C1422.761,1006.077,1481.532,1007.934,1528.469,1016.237Z" transform="translate(-292.029 -776.427)" fill="none" stroke="#fff" stroke-miterlimit="10" stroke-width="3"/>
    <path id="obiekt2" d="M1529.85,1025.932c67.971,12.025,79.645,19.012,77.123,72.932-2.964,63.375-19.975,33.638-22.722,86.979-1.183,22.978-25.061,52.409-46.626,61.692-24.972,10.75-53.887,9.421-83.232-5.555-40.617-20.728-20.361-40.041-12.506-99.257,2.94-22.165-10.941-44.6-10.941-62.647C1430.946,1016.426,1485.934,1018.163,1529.85,1025.932Z" transform="translate(-292.029 -776.427)" stroke="#fff" stroke-miterlimit="10" stroke-width="3" fill="url(#pattern)"/>
    <path id="Path_44" data-name="Path 44" d="M1531.231,1035.627c63.294,11.2,74.165,17.7,71.817,67.914-2.761,59.016-18.6,31.324-21.159,81-1.1,21.4-23.337,48.8-43.418,57.447-23.254,10.01-50.18,8.773-77.506-5.173-37.823-19.3-18.96-37.286-11.645-92.428,2.737-20.64-10.189-41.529-10.189-58.337C1439.131,1026.775,1490.336,1028.393,1531.231,1035.627Z" transform="translate(-292.029 -776.427)" fill="none" stroke="#fff" stroke-miterlimit="10" stroke-width="3"/>
    <path id="Path_45" data-name="Path 45" d="M1532.611,1045.322c58.619,10.37,68.686,16.4,66.511,62.9-2.556,54.655-17.226,29.01-19.595,75.011-1.021,19.816-21.613,45.2-40.21,53.2-21.536,9.271-46.472,8.125-71.78-4.79-35.028-17.877-17.559-34.532-10.785-85.6,2.535-19.115-9.436-38.461-9.436-54.027C1447.316,1037.124,1494.738,1038.622,1532.611,1045.322Z" transform="translate(-292.029 -776.427)" fill="none" stroke="#fff" stroke-miterlimit="10" stroke-width="3"/>
    <path id="Path_46" data-name="Path 46" d="M1533.992,1055.017c53.942,9.543,63.206,15.088,61.205,57.879-2.352,50.3-15.852,26.7-18.032,69.028-.939,18.235-19.889,41.591-37,48.958-19.818,8.531-42.765,7.477-66.054-4.408-32.234-16.45-16.158-31.777-9.925-78.771,2.334-17.59-8.683-35.393-8.683-49.717C1455.5,1047.473,1499.14,1048.852,1533.992,1055.017Z" transform="translate(-292.029 -776.427)" fill="none" stroke="#fff" stroke-miterlimit="10" stroke-width="3"/>
    <path id="Path_47" data-name="Path 47" d="M1535.373,1064.712c49.266,8.716,57.727,13.78,55.9,52.862-2.148,45.935-14.478,24.381-16.469,63.043-.858,16.655-18.165,37.986-33.795,44.714-18.1,7.792-39.057,6.829-60.327-4.026-29.44-15.024-14.758-29.022-9.064-71.942,2.131-16.065-7.931-32.324-7.931-45.407C1463.686,1057.822,1503.542,1059.081,1535.373,1064.712Z" transform="translate(-292.029 -776.427)" fill="none" stroke="#fff" stroke-miterlimit="10" stroke-width="3"/>
    <path id="Path_48" data-name="Path 48" d="M1587.347,1122.251c-1.945,41.575-13.1,22.067-14.906,57.059-.776,15.074-16.44,34.381-30.587,40.471-16.382,7.052-35.35,6.18-54.6-3.644-26.645-13.6-13.357-26.268-8.2-65.114,1.929-14.54-7.178-29.256-7.178-41.1,0-41.755,36.073-40.615,64.882-35.519C1581.343,1082.3,1589,1086.879,1587.347,1122.251Z" transform="translate(-292.029 -776.427)" fill="none" stroke="#fff" stroke-miterlimit="10" stroke-width="3"/>
  </g>
</svg>
