<svg xmlns="http://www.w3.org/2000/svg" width="172.99" height="184.046" viewBox="0 0 172.99 184.046">
  <g id="Group_1" data-name="Group 1" transform="translate(-884.823 -1007.188)">
    <ellipse id="Ellipse_1" data-name="Ellipse 1" cx="32.532" cy="34.631" rx="32.532" ry="34.631" transform="translate(976.644 1082.827)" fill="none" stroke="#fff" stroke-miterlimit="10" stroke-width="0.956"/>
    <ellipse id="Ellipse_2" data-name="Ellipse 2" cx="37.847" cy="40.289" rx="37.847" ry="40.289" transform="translate(967.543 1075.344)" fill="none" stroke="#fff" stroke-miterlimit="10" stroke-width="1.023"/>
    <ellipse id="Ellipse_3" data-name="Ellipse 3" cx="43.162" cy="45.947" rx="43.162" ry="45.947" transform="translate(958.443 1067.862)" fill="none" stroke="#fff" stroke-miterlimit="10" stroke-width="1.09"/>
    <ellipse id="Ellipse_4" data-name="Ellipse 4" cx="48.477" cy="51.605" rx="48.477" ry="51.605" transform="translate(949.342 1060.379)" fill="none" stroke="#fff" stroke-miterlimit="10" stroke-width="1.157"/>
    <ellipse id="Ellipse_5" data-name="Ellipse 5" cx="53.792" cy="57.263" rx="53.792" ry="57.263" transform="translate(940.241 1052.896)" fill="none" stroke="#fff" stroke-miterlimit="10" stroke-width="1.224"/>
    <ellipse id="Ellipse_6" data-name="Ellipse 6" cx="59.107" cy="62.921" rx="59.107" ry="62.921" transform="translate(931.14 1045.413)" fill="none" stroke="#fff" stroke-miterlimit="10" stroke-width="1.291"/>
    <ellipse id="Ellipse_7" data-name="Ellipse 7" cx="64.422" cy="68.579" rx="64.422" ry="68.579" transform="translate(922.039 1037.931)" fill="none" stroke="#fff" stroke-miterlimit="10" stroke-width="1.357"/>
    <ellipse id="Ellipse_8" data-name="Ellipse 8" cx="69.737" cy="74.237" rx="69.737" ry="74.237" transform="translate(912.938 1030.448)" fill="none" stroke="#fff" stroke-miterlimit="10" stroke-width="1.424"/>
    <ellipse id="Ellipse_9" data-name="Ellipse 9" cx="75.052" cy="79.895" rx="75.052" ry="79.895" transform="translate(903.837 1022.965)" fill="none" stroke="#fff" stroke-miterlimit="10" stroke-width="1.491"/>
    <ellipse id="Ellipse_10" data-name="Ellipse 10" cx="80.367" cy="85.552" rx="80.367" ry="85.552" transform="translate(894.736 1015.483)" fill="none" stroke="#fff" stroke-miterlimit="10" stroke-width="1.558"/>
    <ellipse id="Ellipse_11" data-name="Ellipse 11" cx="85.683" cy="91.21" rx="85.683" ry="91.21" transform="translate(885.635 1008)" fill="none" stroke="#fff" stroke-miterlimit="10" stroke-width="1.625"/>
  </g>
</svg>
