<svg xmlns="http://www.w3.org/2000/svg" width="21" height="17" viewBox="0 0 21 17">
  <g id="Icon_ionic-logo-javascript" data-name="Icon ionic-logo-javascript" transform="translate(24.75 -2.25)">
    <path id="Path_74" data-name="Path 74" d="M-16.161,2.813h-3.9v10.26c0,2.539-.88,3.248-2.411,3.248a5.89,5.89,0,0,1-1.867-.293l-.407,3a9.348,9.348,0,0,0,2.679.391c3.516,0,5.909-1.635,5.909-6.324V2.813Z" transform="translate(0 -0.172)" fill="#fff"/>
    <path id="Path_75" data-name="Path 75" d="M-2.829,2.25C-6.608,2.25-9,4.375-9,7.184c0,2.419,1.842,3.933,4.521,4.91,1.937.684,2.7,1.295,2.7,2.3,0,1.1-.885,1.807-2.559,1.807A8.532,8.532,0,0,1-8.259,15.17h0L-9,18.223a9.759,9.759,0,0,0,4.449,1.027c4.425,0,6.482-2.345,6.482-5.1C1.931,11.8.616,10.286-2.23,9.21c-2.105-.83-2.99-1.294-2.99-2.344,0-.831.766-1.587,2.344-1.587A6.805,6.805,0,0,1,.37,6.114L1.3,3.023A10.144,10.144,0,0,0-2.829,2.25Z" transform="translate(-5.681)" fill="#fff"/>
  </g>
</svg>
