<svg xmlns="http://www.w3.org/2000/svg" width="84" height="23" viewBox="0 0 84 23">
  <g id="Group_15" data-name="Group 15" transform="translate(-6.321 -4.69)">
    <path id="Path_82" data-name="Path 82" d="M16.1,13.886c-1.169-5.37-3.6-6.8-4.226-7.81a11.678,11.678,0,0,1-.679-1.385,1.437,1.437,0,0,1-.482,1.139,13.042,13.042,0,0,0-4.38,9.646,11.771,11.771,0,0,0,4.58,9.56,1.215,1.215,0,0,0,1.221-.2A11.3,11.3,0,0,0,16.1,13.886" transform="translate(0)" fill="#fff"/>
    <path id="Path_83" data-name="Path 83" d="M66.958,222.46a11.227,11.227,0,0,1-.458,2.91s.179,1.287.305,2.65h.446a24.787,24.787,0,0,1,.486-2.854C67.16,224.882,66.98,223.646,66.958,222.46Z" transform="translate(-55.586 -200.33)" fill="#fff"/>
    <path id="Path_84" data-name="Path 84" d="M71.773,26.241h0c-.583-.281-.752-1.6-.778-2.822a60.225,60.225,0,0,0,.126-6.076c-.031-1.063.014-9.847-.251-11.133A10.862,10.862,0,0,0,71.5,7.475c.621,1.012,3.058,2.443,4.226,7.818A11.305,11.305,0,0,1,71.773,26.241Z" transform="translate(-59.623 -1.404)" fill="#fff"/>
    <path id="Path_85" data-name="Path 85" d="M1074.377,202.853a1.266,1.266,0,1,1,1.266-1.284,1.25,1.25,0,0,1-1.216,1.283h-.05m0-2.418a1.153,1.153,0,1,0,1.145,1.16v0a1.133,1.133,0,0,0-1.111-1.155h-.034m.305,1.952-.327-.7h-.263v.7h-.191v-1.6h.472c.352,0,.5.153.5.448a.389.389,0,0,1-.317.427l.337.726Zm-.582-.87h.277c.224,0,.31-.076.31-.281s-.082-.274-.334-.274h-.253Z" transform="translate(-985.323 -180.076)" fill="#fff"/>
    <path id="Path_86" data-name="Path 86" d="M799.657,109.895a2.907,2.907,0,0,0,1.631.387,3.175,3.175,0,0,0,2.3-.822,4.373,4.373,0,0,0,1.288-3.451,4.106,4.106,0,0,0-1.891-3.725,5.059,5.059,0,0,0-2.707-.629,2.248,2.248,0,0,0-.8.1.42.42,0,0,0-.147.229c-.032.29-.032,2.5-.032,3.8,0,1.339,0,3.206.032,3.435a.988.988,0,0,0,.326.677M796.4,100.93c.277,0,1.33.048,1.82.048.916,0,1.549-.048,3.261-.048a5.279,5.279,0,0,1,3.506,1.128,4.7,4.7,0,0,1,1.6,3.693,4.792,4.792,0,0,1-1.99,4.144,6.583,6.583,0,0,1-4.122,1.161c-.979,0-2.658-.032-4.061-.048h-.029c-.066-.129.12-.632.234-.645a2.074,2.074,0,0,0,.658-.131c.3-.121.366-.272.4-.8.049-1,.033-2.193.033-3.548,0-.967.016-2.854-.016-3.451-.05-.5-.26-.628-.687-.725a8.884,8.884,0,0,0-.916-.145c-.032-.1.218-.534.3-.629" transform="translate(-729.457 -88.396)" fill="#fff"/>
    <path id="Path_87" data-name="Path 87" d="M947.609,102.09c-.065.016-.147.178-.147.258-.017.581-.033,2.1-.033,3.144a.1.1,0,0,0,.082.081c.211.016.733.033,1.174.033a2.79,2.79,0,0,0,1.174-.178,1.52,1.52,0,0,0,.763-1.435c0-1.4-.979-1.935-2.43-1.935a4.387,4.387,0,0,0-.587.032m3.7,6.45c0-1.419-1.044-2.225-2.952-2.225a7.453,7.453,0,0,0-.831.016c-.049.016-.1.048-.1.081,0,1.016-.017,2.644.033,3.289a1.089,1.089,0,0,0,.473.774,3.28,3.28,0,0,0,1.256.177,1.96,1.96,0,0,0,2.12-2.112m-6.645-7.24c.147,0,.581.048,1.69.048,1.043,0,1.891-.032,2.9-.032,1.255,0,2.984.452,2.984,2.322a2.263,2.263,0,0,1-1.5,2.016c-.049.016-.049.048,0,.064A2.586,2.586,0,0,1,953,108.185a3.016,3.016,0,0,1-2.12,2.806,6.73,6.73,0,0,1-2.672.451c-.734,0-2.7-.076-3.793-.064-.115-.048.1-.565.2-.645a3,3,0,0,0,.74-.116c.391-.1.437-.222.486-.8.033-.5.033-2.29.033-3.564,0-1.742.017-2.918,0-3.5-.016-.451-.179-.6-.489-.677-.244-.049-.652-.1-.978-.145-.082-.081.169-.565.25-.629" transform="translate(-866.424 -88.735)" fill="#fff"/>
    <path id="Path_88" data-name="Path 88" d="M179.9,152.152a.707.707,0,0,1-.05-.326.415.415,0,0,1,.05-.218,5.55,5.55,0,0,0,.626-.127c.289-.072.4-.229.414-.6.047-.869.05-2.5.034-3.647V147.2a.465.465,0,0,0-.153-.41,3.278,3.278,0,0,0-.865-.382c-.137-.04-.212-.112-.208-.2s.09-.183.268-.218a10.289,10.289,0,0,0,2.2-.568.322.322,0,0,1,.065.229c0,.05-.008.1-.013.159-.014.162-.029.346-.029.529a.121.121,0,0,0,.2.069,4.05,4.05,0,0,1,2.181-.985,1.875,1.875,0,0,1,1.667,1.023.112.112,0,0,0,.095.056.108.108,0,0,0,.089-.047,4.368,4.368,0,0,1,2.259-1.031c1.334,0,2.132,1,2.132,2.671,0,.481,0,1.091-.009,1.659,0,.5-.008.967-.008,1.291a.446.446,0,0,0,.263.34,3.374,3.374,0,0,0,.833.205h.014a1.24,1.24,0,0,1-.084.546c-.089,0-.211-.008-.363-.015-.277-.014-.657-.033-1.1-.033-.887,0-1.35.017-1.793.046a1.342,1.342,0,0,1,0-.543,4.7,4.7,0,0,0,.543-.118c.282-.093.364-.221.382-.6.007-.266.058-2.613-.033-3.171a1.419,1.419,0,0,0-1.471-1.254,2.589,2.589,0,0,0-1.467.56.214.214,0,0,0-.053.138v.011a6,6,0,0,1,.064,1.182c0,.305,0,.624,0,.942,0,.647-.007,1.258,0,1.72a.433.433,0,0,0,.343.45l.215.05c.127.031.26.063.458.095a.877.877,0,0,1-.008.406.326.326,0,0,1-.057.138c-.493-.017-1-.031-1.73-.031-.221,0-.582.009-.9.018-.259.007-.5.014-.642.014a.629.629,0,0,1-.049-.281.487.487,0,0,1,.051-.263l.2-.036c.171-.031.319-.056.458-.092.241-.076.332-.208.35-.515a24.239,24.239,0,0,0-.018-3.3,1.355,1.355,0,0,0-1.405-1.252,2.644,2.644,0,0,0-1.467.559.447.447,0,0,0-.135.332v.854c0,1.038-.007,2.33.018,2.889a.458.458,0,0,0,.4.452c.071.021.193.04.335.064l.263.045a1.157,1.157,0,0,1-.044.546c-.142,0-.317-.009-.517-.018-.305-.014-.687-.031-1.118-.031-.51,0-.865.017-1.149.031-.192.009-.357.017-.523.018" transform="translate(-160.183 -129.429)" fill="#fff"/>
    <path id="Path_89" data-name="Path 89" d="M359.133,146.2a1.391,1.391,0,0,0-.779.219,2.209,2.209,0,0,0-.855,2.043c0,1.891.947,3.213,2.3,3.213a1.45,1.45,0,0,0,.994-.352,2.554,2.554,0,0,0,.638-2.007c0-1.863-.926-3.116-2.3-3.116m.261,6.176a3.17,3.17,0,0,1-3.323-3.479,3.111,3.111,0,0,1,1.427-2.73,4.36,4.36,0,0,1,2.205-.652,3.084,3.084,0,0,1,3.175,3.27,3.383,3.383,0,0,1-1.508,2.987,4.278,4.278,0,0,1-1.977.6" transform="translate(-323.04 -129.497)" fill="#fff"/>
    <path id="Path_90" data-name="Path 90" d="M685.952,146.2a1.387,1.387,0,0,0-.78.219,2.21,2.21,0,0,0-.855,2.043c0,1.891.947,3.213,2.3,3.213a1.45,1.45,0,0,0,1-.352,2.554,2.554,0,0,0,.637-2.007c0-1.863-.925-3.116-2.3-3.116m.261,6.176a3.17,3.17,0,0,1-3.323-3.478,3.109,3.109,0,0,1,1.428-2.731,4.351,4.351,0,0,1,2.2-.652,3.084,3.084,0,0,1,3.175,3.269,3.38,3.38,0,0,1-1.508,2.987,4.27,4.27,0,0,1-1.977.6" transform="translate(-624.901 -129.497)" fill="#fff"/>
    <path id="Path_91" data-name="Path 91" d="M580.9,146.057c-.755,0-1.243.6-1.243,1.519s.421,2.02,1.6,2.02a1.151,1.151,0,0,0,.753-.291,1.885,1.885,0,0,0,.458-1.326c0-1.2-.586-1.922-1.567-1.922m-.1,6.369a1.244,1.244,0,0,0-.611.153c-.6.382-.875.763-.875,1.207a1.289,1.289,0,0,0,.508,1.039,2.573,2.573,0,0,0,1.73.529c1.465,0,2.121-.788,2.121-1.568a1.111,1.111,0,0,0-.833-1.114,6.54,6.54,0,0,0-2.038-.245m.1,3.74a3.163,3.163,0,0,1-2.054-.6,1.925,1.925,0,0,1-.763-1.426,1.115,1.115,0,0,1,.289-.725,7.583,7.583,0,0,1,1.328-1.064.07.07,0,0,0,.043-.065.068.068,0,0,0-.052-.067,1.4,1.4,0,0,1-.941-.916.078.078,0,0,0-.007-.036.212.212,0,0,1,.086-.263c.095-.067.246-.157.408-.253a5.488,5.488,0,0,0,.656-.427.108.108,0,0,0-.006-.152.11.11,0,0,0-.022-.016,2.109,2.109,0,0,1-1.5-2.214,2.2,2.2,0,0,1,.924-1.811,4.213,4.213,0,0,1,2.066-.7h.038a4.26,4.26,0,0,1,1.577.351,2.507,2.507,0,0,0,.933.148,1.257,1.257,0,0,0,1.009-.382.877.877,0,0,1,.053.288,1.086,1.086,0,0,1-.182.663.823.823,0,0,1-.627.272.52.52,0,0,1-.076,0,2.058,2.058,0,0,1-.382-.063l-.063.022c-.02.029-.007.061.009.1a.141.141,0,0,1,.009.025,4.475,4.475,0,0,1,.091.618,2.31,2.31,0,0,1-.974,2.087,3.325,3.325,0,0,1-1.679.65h0c-.013,0-.076.005-.2.016-.076.007-.176.016-.19.016h-.015c-.11.031-.4.167-.4.421,0,.211.13.472.75.52l.4.028a12.354,12.354,0,0,1,2.321.291,1.607,1.607,0,0,1,1.074,1.547,3.147,3.147,0,0,1-2.025,2.678,4.4,4.4,0,0,1-1.915.43" transform="translate(-528.104 -129.179)" fill="#fff"/>
    <path id="Path_92" data-name="Path 92" d="M467.941,151.307a2.911,2.911,0,0,1-.93-.242.427.427,0,0,1-.114-.229c-.033-.5-.033-1.951-.033-2.9a3.464,3.464,0,0,0-.458-1.935,1.962,1.962,0,0,0-1.663-.871,3.862,3.862,0,0,0-2.185,1.032c-.017.016-.124.118-.122-.04s.027-.481.042-.687a.353.353,0,0,0-.107-.3,9.719,9.719,0,0,1-2.218.581c-.347.067-.434.4-.064.516h.005a3.166,3.166,0,0,1,.84.369.44.44,0,0,1,.131.4c.016,1.08.016,2.741-.033,3.644-.016.355-.114.484-.375.549l.024-.008a5.069,5.069,0,0,1-.6.113.879.879,0,0,0,0,.645c.163,0,.992-.048,1.679-.048.945,0,1.434.048,1.679.048a.9.9,0,0,0,.066-.645,3.437,3.437,0,0,1-.669-.1c-.26-.064-.326-.194-.342-.483-.032-.759-.032-2.371-.032-3.468a.646.646,0,0,1,.179-.534,2.149,2.149,0,0,1,1.337-.483,1.459,1.459,0,0,1,.992.338,1.382,1.382,0,0,1,.467.911c.065.611.048,1.839.048,2.9,0,.581-.048.727-.26.791a2.635,2.635,0,0,1-.669.129.879.879,0,0,0,0,.645c.424,0,.916-.048,1.63-.048.9,0,1.468.048,1.7.048a.9.9,0,0,0,.066-.645" transform="translate(-418.893 -129.149)" fill="#fff"/>
  </g>
</svg>
