<svg xmlns="http://www.w3.org/2000/svg" width="77" height="21" viewBox="0 0 77 21">
  <g id="Group_14" data-name="Group 14" transform="translate(-4.067 -47.074)">
    <path id="Path_76" data-name="Path 76" d="M110.946,73.128a1.072,1.072,0,0,1-.539-.145l-1.717-1.016c-.257-.143-.132-.194-.047-.224a3.486,3.486,0,0,0,.776-.353.131.131,0,0,1,.128.01l1.319.784a.169.169,0,0,0,.159,0l5.144-2.969a.161.161,0,0,0,.079-.139V63.138a.166.166,0,0,0-.08-.142l-5.142-2.966a.165.165,0,0,0-.159,0L105.726,63a.168.168,0,0,0-.081.141v5.937a.157.157,0,0,0,.081.137l1.409.815c.765.382,1.233-.068,1.233-.52V63.644a.148.148,0,0,1,.149-.148h.653a.148.148,0,0,1,.148.148v5.862a1.425,1.425,0,0,1-1.523,1.605,2.2,2.2,0,0,1-1.185-.321l-1.349-.776a1.086,1.086,0,0,1-.539-.938V63.138a1.082,1.082,0,0,1,.539-.937l5.144-2.973a1.129,1.129,0,0,1,1.08,0l5.144,2.973a1.086,1.086,0,0,1,.54.937v5.937a1.089,1.089,0,0,1-.54.938l-5.144,2.97a1.07,1.07,0,0,1-.541.145m1.59-4.09c-2.252,0-2.723-1.034-2.723-1.9a.149.149,0,0,1,.149-.148h.665a.149.149,0,0,1,.148.126c.1.677.4,1.019,1.762,1.019,1.083,0,1.544-.245,1.544-.82,0-.332-.131-.577-1.815-.743-1.408-.139-2.278-.45-2.278-1.577,0-1.038.875-1.657,2.341-1.657,1.648,0,2.463.572,2.566,1.8a.148.148,0,0,1-.148.161h-.668a.148.148,0,0,1-.145-.116c-.161-.713-.55-.94-1.607-.94-1.183,0-1.32.413-1.32.721,0,.374.162.483,1.76.694,1.581.209,2.332.5,2.332,1.616s-.934,1.765-2.563,1.765" transform="translate(-36.103 -5.168)" fill="#fff"/>
    <path id="Path_77" data-name="Path 77" d="M91.54,65.225a.66.66,0,0,0,.328-.57V63.129a.659.659,0,0,0-.328-.57l-5.421-3.147a.659.659,0,0,0-.66,0L80,62.56a.659.659,0,0,0-.329.57v6.3a.659.659,0,0,0,.333.573l5.42,3.088a.658.658,0,0,0,.646,0l3.278-1.822a.329.329,0,0,0,0-.574l-5.488-3.15a.329.329,0,0,1-.166-.285V65.288A.328.328,0,0,1,83.867,65l1.709-.985a.327.327,0,0,1,.329,0L87.614,65a.328.328,0,0,1,.165.285V66.84a.329.329,0,0,0,.5.285l3.266-1.9" transform="translate(-27.117 -5.25)" fill="#fff"/>
    <path id="Path_78" data-name="Path 78" d="M88.382,67.965a.129.129,0,0,1,.126,0l1.047.6a.127.127,0,0,1,.063.11v1.209a.127.127,0,0,1-.063.11l-1.047.6a.126.126,0,0,1-.126,0L87.336,70a.126.126,0,0,1-.064-.11V68.679a.127.127,0,0,1,.064-.11l1.046-.6" transform="translate(-29.768 -8.005)" fill="#fff"/>
    <path id="Path_79" data-name="Path 79" d="M62.664,62.446a.157.157,0,0,1-.082.136l-1.873,1.033a.169.169,0,0,1-.165,0l-1.873-1.033a.157.157,0,0,1-.082-.136V60.375a.159.159,0,0,1,.082-.137L60.544,59.2a.167.167,0,0,1,.165,0l1.874,1.035a.159.159,0,0,1,.082.137v2.071Zm.506-15.332a.344.344,0,0,0-.327,0,.314.314,0,0,0-.163.272V55.4a.221.221,0,0,1-.115.191.242.242,0,0,1-.231,0l-1.366-.754a.684.684,0,0,0-.658,0l-5.456,3.014a.627.627,0,0,0-.33.547v6.029a.628.628,0,0,0,.329.547L60.31,67.99a.684.684,0,0,0,.659,0l5.457-3.015a.628.628,0,0,0,.329-.547V49.4a.629.629,0,0,0-.338-.551L63.17,47.114" transform="translate(-18.097 0)" fill="#fff"/>
    <path id="Path_80" data-name="Path 80" d="M35.1,59.359a.657.657,0,0,1,.658,0l5.456,3.148a.661.661,0,0,1,.329.571v6.3a.661.661,0,0,1-.329.571L35.757,73.1a.661.661,0,0,1-.659,0l-5.454-3.15a.661.661,0,0,1-.329-.571v-6.3a.66.66,0,0,1,.329-.57L35.1,59.359" transform="translate(-9.055 -5.232)" fill="#fff"/>
    <path id="Path_81" data-name="Path 81" d="M16.292,63a.657.657,0,0,0-.329-.572l-5.454-3.139a.641.641,0,0,0-.3-.086h-.056a.644.644,0,0,0-.3.086L4.4,62.43a.661.661,0,0,0-.33.572l.012,8.451a.323.323,0,0,0,.165.285.316.316,0,0,0,.327,0l3.241-1.856a.664.664,0,0,0,.33-.572V65.362a.658.658,0,0,1,.329-.571L9.85,64a.654.654,0,0,1,.658,0l1.379.795a.659.659,0,0,1,.33.571V69.31a.665.665,0,0,0,.33.572l3.241,1.856a.319.319,0,0,0,.329,0,.329.329,0,0,0,.163-.285L16.292,63" transform="translate(0 -5.209)" fill="#fff"/>
  </g>
</svg>
