<svg xmlns="http://www.w3.org/2000/svg" width="21" height="21" viewBox="0 0 21 21">
  <path id="Icon_awesome-python" data-name="Icon awesome-python" d="M20.615,10.148c-.361-1.448-1.045-2.541-2.5-2.541h-1.88V9.829A3.215,3.215,0,0,1,13.1,13.007H8.1a2.554,2.554,0,0,0-2.5,2.545v4.772c0,1.359,1.181,2.156,2.5,2.545a8.423,8.423,0,0,0,5.006,0c1.261-.366,2.5-1.1,2.5-2.545V18.417h-5v-.637h7.509c1.458,0,2-1.017,2.5-2.541a8.573,8.573,0,0,0,0-5.09Zm-7.2,9.539a.954.954,0,1,1-.942.952A.947.947,0,0,1,13.415,19.687Zm-5.55-7.308h5.006a2.524,2.524,0,0,0,2.5-2.545V5.058a2.8,2.8,0,0,0-2.5-2.606,15.451,15.451,0,0,0-5.006,0c-2.119.375-2.5,1.158-2.5,2.606V6.97h5.011v.637H3.483A3.129,3.129,0,0,0,.352,10.148a9.388,9.388,0,0,0,0,5.09c.356,1.481,1.2,2.541,2.662,2.541h1.72V15.492A3.183,3.183,0,0,1,7.865,12.379ZM7.551,5.7a.954.954,0,1,1,.942-.952A.947.947,0,0,1,7.551,5.7Z" transform="translate(0 -2.25)" fill="#fff"/>
</svg>
