<svg xmlns="http://www.w3.org/2000/svg" width="20" height="23" viewBox="0 0 20 23">
  <g id="Group_22" data-name="Group 22" transform="translate(124 -411.767)">
    <path id="Icon_awesome-react" data-name="Icon awesome-react" d="M-107.669,417.206q-.316-.1-.633-.191c.035-.139.067-.277.1-.416.48-2.233.167-4.028-.9-4.62-1.027-.566-2.7.022-4.4,1.439-.167.138-.333.284-.488.431-.105-.1-.215-.195-.324-.288-1.777-1.514-3.558-2.15-4.625-1.555-1.021.57-1.325,2.259-.893,4.372.043.21.09.416.145.626-.25.068-.5.142-.727.221-2.088.7-3.584,1.787-3.584,2.919,0,1.169,1.594,2.342,3.761,3.053.176.056.352.112.531.16-.058.225-.111.446-.156.675-.41,2.078-.09,3.73.933,4.294,1.055.586,2.828-.015,4.555-1.465.137-.116.273-.236.41-.363.172.16.352.315.531.465,1.672,1.38,3.322,1.936,4.343,1.372,1.055-.586,1.4-2.357.953-4.515q-.053-.247-.117-.506c.125-.034.246-.071.367-.107,2.254-.716,3.889-1.873,3.889-3.061,0-1.135-1.539-2.238-3.666-2.937Zm-5.282-3.181c1.453-1.214,2.808-1.689,3.425-1.349.66.363.914,1.832.5,3.761-.027.127-.055.251-.09.373a20.757,20.757,0,0,0-2.629-.4,19.083,19.083,0,0,0-1.667-1.99c.152-.139.3-.27.457-.4Zm-4.519,8.062c.2.326.4.652.617.97a18.294,18.294,0,0,1-1.815-.281,17.061,17.061,0,0,1,.637-1.667c.18.33.363.655.558.978Zm-1.183-4.507c.562-.12,1.16-.218,1.781-.292-.207.311-.41.629-.6.952s-.379.644-.555.974a17.374,17.374,0,0,1-.625-1.634Zm1.071,2.582c.258-.517.539-1.023.833-1.521s.617-.982.953-1.457c.586-.041,1.183-.064,1.792-.064s1.211.022,1.793.064q.5.708.949,1.45t.848,1.514q-.393.775-.844,1.529c-.3.5-.611.982-.944,1.461-.582.041-1.188.06-1.8.06s-1.207-.019-1.781-.053q-.51-.714-.961-1.461c-.3-.5-.578-1-.84-1.521Zm7.055,1.918q.3-.495.57-1a16.924,16.924,0,0,1,.66,1.66,17.787,17.787,0,0,1-1.833.3c.207-.315.406-.637.6-.96Zm.563-2.866c-.183-.33-.371-.66-.567-.982s-.389-.633-.6-.944q.9.106,1.793.3a16.125,16.125,0,0,1-.629,1.626ZM-113.992,415a16.566,16.566,0,0,1,1.157,1.341c-.773-.034-1.55-.034-2.324,0,.38-.483.775-.933,1.166-1.341Zm-4.532-2.3c.656-.367,2.111.16,3.648,1.461.1.083.2.172.3.262a19.207,19.207,0,0,0-1.675,1.99,21.422,21.422,0,0,0-2.625.389c-.05-.191-.094-.386-.137-.581C-119.383,414.413-119.141,413.044-118.524,412.7Zm-.957,9.875c-.167-.045-.324-.094-.484-.146a8.109,8.109,0,0,1-2.461-1.169,1.676,1.676,0,0,1-.735-1.119c0-.686,1.234-1.562,3.015-2.158.222-.075.449-.142.676-.206a19.43,19.43,0,0,0,.957,2.383,19.974,19.974,0,0,0-.969,2.416Zm4.555,3.672a7.2,7.2,0,0,1-2.2,1.323,1.8,1.8,0,0,1-1.379.048c-.621-.345-.879-1.667-.527-3.447.043-.21.09-.42.144-.626a20.362,20.362,0,0,0,2.652.367,19.975,19.975,0,0,0,1.687,2c-.125.116-.25.229-.375.334Zm.957-.911a17.856,17.856,0,0,1-1.183-1.36c.375.015.762.022,1.152.022s.8-.008,1.187-.026a16.267,16.267,0,0,1-1.156,1.364Zm5.1,1.124a1.646,1.646,0,0,1-.644,1.172c-.621.345-1.944-.107-3.375-1.279-.167-.135-.328-.281-.5-.431a18.719,18.719,0,0,0,1.648-2.008,19.989,19.989,0,0,0,2.666-.393c.039.154.074.308.105.457a6.557,6.557,0,0,1,.1,2.484Zm.711-4.028c-.111.034-.219.068-.333.1a18.592,18.592,0,0,0-1-2.39,18.528,18.528,0,0,0,.957-2.357c.2.056.4.116.586.176,1.82.6,3.1,1.492,3.1,2.173,0,.734-1.363,1.682-3.312,2.3Zm-5.848-.562a1.753,1.753,0,0,0,1.789-1.716A1.753,1.753,0,0,0-114,418.443a1.753,1.753,0,0,0-1.789,1.716h0A1.753,1.753,0,0,0-114,421.874Z" transform="translate(0)" fill="#fff"/>
    <text id="React" transform="translate(-120.378 433.767)" fill="#fff" font-size="5" font-family="Helvetica"><tspan x="0" y="0">React</tspan></text>
  </g>
</svg>
